<?xml version="1.0" standalone="no"?><!DOCTYPE svg PUBLIC "-//W3C//DTD SVG 1.1//EN" "http://www.w3.org/Graphics/SVG/1.1/DTD/svg11.dtd"><svg t="1607334099310" class="icon" viewBox="0 0 1024 1024" version="1.1" xmlns="http://www.w3.org/2000/svg" p-id="1592" width="32" height="32" xmlns:xlink="http://www.w3.org/1999/xlink"><defs><style type="text/css"></style></defs><path d="M374.927 375.813c1.345-20.023 9.81-38.715 24.18-53.085 15.728-15.728 36.581-24.39 58.718-24.39 7.99 0 15.796 1.145 23.242 3.335l62.861-43.909a7.974 7.974 0 0 1-8.394-1.853l-21.896-21.896a8 8 0 1 1 11.314-11.313l21.896 21.896c2.961 2.961 3.11 7.665 0.457 10.807l85.912-60.01-92.027-92.027-67.785 67.786 13.125 13.125a8 8 0 0 1-5.657 13.657 7.974 7.974 0 0 1-5.657-2.343l-13.125-13.125-304.283 304.283a196.206 196.206 0 0 1 13.858 31.042l203.261-141.98zM180.9 557.257c5.653 44.278-3.773 89.983-28.107 129.029l4.589 4.589c27.57-38.484 36.381-87.741 23.518-133.618zM581.929 280.012l10.629 15.215a8 8 0 0 1-1.978 11.14 7.957 7.957 0 0 1-4.574 1.442 7.989 7.989 0 0 1-6.565-3.419l-10.629-15.216-352.779 246.42c23.223 67.513 7.927 142.564-39.81 195.588l132.531 189.733L871.816 527.61 660.519 225.116l-78.59 54.896z m30.603 57.784c3.619-2.531 8.609-1.646 11.14 1.977l17.733 25.386a7.999 7.999 0 0 1-1.978 11.139 7.957 7.957 0 0 1-4.574 1.442 7.989 7.989 0 0 1-6.565-3.419l-17.733-25.386a7.999 7.999 0 0 1 1.977-11.139zM448.103 469.309c3.969-21.581 16.108-40.418 34.182-53.042 14.073-9.83 30.533-15.026 47.598-15.026 26.798 0 51.893 13.02 67.128 34.829 12.561 17.981 17.281 39.819 13.294 61.492-3.971 21.581-16.111 40.417-34.186 53.042-14.071 9.829-30.53 15.025-47.597 15.025-26.799 0-51.893-13.021-67.125-34.83-12.559-17.979-17.28-39.817-13.294-61.49zM283.48 746a19.903 19.903 0 0 1-11.436 3.606c-6.313 0-12.524-2.981-16.414-8.549-6.325-9.056-4.112-21.523 4.943-27.85l165.629-115.694c9.057-6.326 21.524-4.112 27.849 4.942 6.325 9.056 4.112 21.523-4.943 27.85L283.48 746z m468.57-208.468a8 8 0 0 1 11.14 1.978l17.734 25.386a8 8 0 0 1-13.117 9.162l-17.734-25.386a8 8 0 0 1 1.977-11.14z m-46.17-66.1a8 8 0 0 1 11.14 1.978l17.732 25.386a8 8 0 0 1-13.117 9.163l-17.732-25.386a8 8 0 0 1 1.977-11.141z m-22.246 123.576l-340.077 237.55a19.909 19.909 0 0 1-11.436 3.605c-6.313 0-12.524-2.981-16.414-8.549-6.325-9.056-4.112-21.523 4.943-27.85l340.077-237.55c9.055-6.324 21.523-4.111 27.85 4.943 6.325 9.057 4.111 21.525-4.943 27.851z m-13.79-189.135l17.733 25.386a8 8 0 0 1-1.978 11.14 7.957 7.957 0 0 1-4.574 1.442 7.989 7.989 0 0 1-6.565-3.419l-17.733-25.386a8 8 0 0 1 1.978-11.14c3.619-2.531 8.608-1.646 11.139 1.977z" fill="#FAFAFA" p-id="1593"></path><path d="M528.522 525.629c8.832 0 17.37-2.703 24.691-7.817 9.393-6.561 15.696-16.322 17.751-27.487 2.037-11.071-0.358-22.205-6.746-31.348-7.758-11.105-20.594-17.735-34.336-17.735-8.832 0-17.37 2.704-24.693 7.818-9.391 6.56-15.693 16.321-17.747 27.486-2.036 11.072 0.36 22.206 6.747 31.349 7.757 11.104 20.592 17.734 34.333 17.734z" fill="#FAFAFA" p-id="1594"></path><path d="M912.267 515.67l-84.301-120.686 12.011-12.011c10.307-10.307 10.248-27.138-0.132-37.52L685.687 191.296l-0.037-0.054a26.748 26.748 0 0 0-6.648-6.632L560.018 65.627c-5.054-5.055-11.761-7.838-18.883-7.838-7.05 0-13.668 2.735-18.641 7.705l-415.73 415.733 9.168 13.658c37.205 55.425 35.198 128.467-4.992 181.757l-10.473 13.887 29.813 29.813-6.319 5.874L283.623 954.79c4.998 7.151 13.167 11.422 21.852 11.422h0.001a26.193 26.193 0 0 0 15.065-4.736l585.301-408.84c11.949-8.35 14.83-24.932 6.425-36.966zM462.091 182.467l13.125 13.125a7.97 7.97 0 0 0 5.657 2.343 8 8 0 0 0 5.657-13.657l-13.125-13.125 67.785-67.786 92.027 92.027-85.912 60.01c2.653-3.143 2.504-7.846-0.457-10.807l-21.896-21.896a8 8 0 0 0-11.314 11.313l21.896 21.896a7.976 7.976 0 0 0 5.657 2.343c0.929 0 1.854-0.169 2.737-0.49l-62.861 43.909a82.262 82.262 0 0 0-23.242-3.335c-22.137 0-42.99 8.662-58.718 24.39-14.371 14.371-22.835 33.063-24.18 53.085l-203.261 141.98a196.246 196.246 0 0 0-13.858-31.042l304.283-304.283zM152.793 686.286c24.334-39.046 33.76-84.751 28.107-129.029 12.863 45.877 4.052 95.134-23.519 133.618l-4.588-4.589z m155.961 234.63L176.223 731.183c47.737-53.023 63.033-128.075 39.81-195.588l352.779-246.42 10.629 15.216a7.99 7.99 0 0 0 6.565 3.419 8 8 0 0 0 6.552-12.582l-10.629-15.215 78.59-54.896 211.297 302.496-563.062 393.303z" fill="" p-id="1595"></path><path d="M767.807 574.058a7.99 7.99 0 0 0 6.565 3.42 8.001 8.001 0 0 0 6.552-12.582L763.19 539.51a8.001 8.001 0 0 0-13.118 9.162l17.735 25.386zM721.635 507.958a7.988 7.988 0 0 0 6.565 3.419 8 8 0 0 0 6.552-12.582l-17.732-25.386a8.001 8.001 0 0 0-13.118 9.162l17.733 25.387zM656.727 415.036l17.733 25.386a7.99 7.99 0 0 0 6.565 3.419 8 8 0 0 0 6.552-12.582l-17.733-25.386a8 8 0 0 0-11.14-1.977 8 8 0 0 0-1.977 11.14zM628.288 374.321a7.988 7.988 0 0 0 6.565 3.419 8 8 0 0 0 6.552-12.581l-17.733-25.386a8 8 0 0 0-11.14-1.977 8 8 0 0 0-1.978 11.139l17.734 25.386zM660.728 562.215L320.65 799.765c-9.055 6.326-11.268 18.794-4.943 27.85 3.889 5.567 10.101 8.549 16.414 8.549 3.954 0 7.948-1.17 11.436-3.605l340.077-237.55c9.055-6.326 11.269-18.794 4.943-27.85-6.326-9.055-18.795-11.268-27.849-4.944zM454.052 602.456c-6.325-9.055-18.792-11.269-27.849-4.942L260.574 713.208c-9.055 6.326-11.268 18.794-4.943 27.85 3.889 5.567 10.101 8.549 16.414 8.549 3.954 0 7.948-1.17 11.436-3.606L449.11 630.307c9.055-6.328 11.267-18.795 4.942-27.851zM528.522 565.629c17.066 0 33.525-5.196 47.597-15.025 18.074-12.624 30.215-31.461 34.186-53.042 3.987-21.673-0.733-43.511-13.294-61.492-15.235-21.809-40.33-34.829-67.128-34.829-17.065 0-33.525 5.196-47.598 15.026-18.073 12.624-30.212 31.461-34.182 53.042-3.986 21.673 0.735 43.511 13.294 61.49 15.233 21.809 40.327 34.83 67.125 34.83z m-41.079-89.085c2.054-11.165 8.356-20.926 17.747-27.486 7.323-5.114 15.861-7.818 24.693-7.818 13.742 0 26.578 6.63 34.336 17.735 6.388 9.144 8.783 20.277 6.746 31.348-2.055 11.165-8.358 20.926-17.751 27.487-7.321 5.114-15.859 7.817-24.691 7.817-13.741 0-26.576-6.63-34.333-17.735-6.387-9.142-8.783-20.275-6.747-31.348z" fill="" p-id="1596"></path></svg>